<?xml version="1.0" encoding="UTF-8" standalone="no"?>
<svg xmlns="http://www.w3.org/2000/svg"
   xmlns:dc="http://purl.org/dc/elements/1.1/"
   xmlns:cc="http://creativecommons.org/ns#"
   xmlns:rdf="http://www.w3.org/1999/02/22-rdf-syntax-ns#"
   width="133.71378" height="164.17957" viewBox="0 0 133.71378 164.17956">
<metadata><rdf:RDF><cc:Work rdf:about="">
<dc:format>image/svg+xml</dc:format>
<dc:type rdf:resource="http://purl.org/dc/dcmitype/StillImage"/>
</cc:Work></rdf:RDF></metadata>
<g transform="matrix(0.3793,0,0,-0.3795,-23.944045,-490.7714)">
		<path
   d="m 65.071036,-1294.4793 c -0.924,-58.775 -0.867,-124.627 0,-183.397 0.839,-56.616 3.636,-120.973 28.766,-155.521 30.269004,-41.616 80.694004,-61.572 145.562004,-91.081 64.867,29.509 115.296,49.467 145.563,91.081 25.13,34.549 27.927,98.904 28.765,155.521 0.868,58.771 0.924,124.622 0,183.397 H 65.071036 z"
   style="fill:#cc0000"/>
		<path
   d="m 414.08104,-1448.7143 h -135.547 v 154.235 h -78.272 v -154.234 H 64.717036 c 0.098,-9.722 0.211,-19.443 0.354,-29.163 0.264,-17.818 0.724,-34.406 2.011,-49.849 H 200.26104 v -178.872 c 12.368,-6.39 25.426,-11.645 39.138,-17.882 13.711,6.237 26.77,11.492 39.135,17.882 v 178.872 h 133.183 c 1.287,15.442 1.748,32.029 2.011,49.849 0.143,9.719 0.256,19.441 0.353,29.162 z"
   style="fill:#ffffff"/>
		<path
   d="m 65.071036,-1294.4793 c -0.924,-58.775 -0.867,-124.629 0,-183.397 0.839,-56.616 3.636,-120.973 28.766,-155.521 30.269004,-41.616 80.694004,-61.572 145.562004,-91.081 64.867,29.509 115.296,49.467 145.563,91.081 25.13,34.549 27.927,98.904 28.765,155.521 0.868,58.769 0.924,124.622 0,183.397 H 65.071036 l 0,0 z"
   style="fill:none;stroke:#554400;stroke-width:2"/>
</g>
</svg>