<?xml version="1.0" encoding="UTF-8" standalone="no"?>
<!-- Generator: Adobe Illustrator 15.0.0, SVG Export Plug-In . SVG Version: 6.00 Build 0)  -->

<svg
   version="1.1"
   x="0px"
   y="0px"
   width="214px"
   height="268px"
   viewBox="0 0 214 268"
   style="enable-background:new 0 0 214 268;"
   xml:space="preserve"
   id="svg121"
   sodipodi:docname="Coat_of_Arms_of_Sumy_Oblast.svg"
   inkscape:version="1.2.1 (9c6d41e410, 2022-07-14)"
   xmlns:inkscape="http://www.inkscape.org/namespaces/inkscape"
   xmlns:sodipodi="http://sodipodi.sourceforge.net/DTD/sodipodi-0.dtd"
   xmlns:xlink="http://www.w3.org/1999/xlink"
   xmlns="http://www.w3.org/2000/svg"
   xmlns:svg="http://www.w3.org/2000/svg"><defs
   id="defs125" /><sodipodi:namedview
   id="namedview123"
   pagecolor="#ffffff"
   bordercolor="#000000"
   borderopacity="0.25"
   inkscape:showpageshadow="2"
   inkscape:pageopacity="0.0"
   inkscape:pagecheckerboard="0"
   inkscape:deskcolor="#d1d1d1"
   showgrid="false"
   inkscape:zoom="1.5615672"
   inkscape:cx="228.2963"
   inkscape:cy="208.76464"
   inkscape:window-width="1920"
   inkscape:window-height="1017"
   inkscape:window-x="-8"
   inkscape:window-y="-8"
   inkscape:window-maximized="1"
   inkscape:current-layer="svg121" />
<symbol
   id="Dot"
   viewBox="-1.625 -1.625 3.25 3.25">
	<path
   style="fill:#404040;"
   d="M1.625,0c0-0.897-0.728-1.625-1.625-1.625S-1.625-0.897-1.625,0S-0.897,1.625,0,1.625   S1.625,0.897,1.625,0z"
   id="path2" />
</symbol>
<symbol
   id="flower"
   viewBox="-5.213 -12.238 11.086 24.477"
   inkscape:label="flower"
   style="display:inline">
	<path
   style="fill:#c3c3c1;stroke:#404040;stroke-linejoin:round;fill-opacity:1"
   d="m 0.699,-4.193 c -1.693,2.446 -4.117,4.076 -5.412,4.008 1.303,0.039 2.966,1.838 3.558,4.378 C 0.105,3.184 1.715,1.739 3.152,0.139 2.441,-1.549 1.494,-3.101 0.699,-4.193 Z"
   id="path5" />
	<path
   style="fill:#c3c3c1;stroke:#404040;stroke-linejoin:round;fill-opacity:1"
   d="M 2.842,-11.738 C 3.558,-9.797 2.439,-6.603 0.699,-4.193 1.494,-3.1 2.441,-1.548 3.151,0.139 5.107,-4.06 5.46,-7.559 2.842,-11.738 Z"
   id="path7" />
	<path
   style="fill:#c3c3c1;stroke:#404040;stroke-linejoin:round;fill-opacity:1"
   d="m -2.987,11.738 c 4.221,-2.213 6.139,-5.775 6.139,-11.6 -1.437,1.6 -3.047,3.045 -4.307,4.054 0.65,2.505 -0.287,5.699 -1.832,7.546 z"
   id="path9" />
	<path
   style="fill:#c3c3c1;stroke:#404040;stroke-linejoin:round;fill-opacity:1"
   d="M 2.515,3.699 C 1.935,3.592 1.761,1.908 2.125,-0.063 2.489,-2.034 3.254,-3.545 3.833,-3.438 4.991,-3.224 5.635,-1.453 5.272,0.517 4.907,2.49 3.673,3.913 2.515,3.699 Z"
   id="path11" />
</symbol>
<symbol
   id="grain"
   viewBox="-8.944 -5.785 17.889 11.569">
	<path
   style="fill:gold;stroke:#404040;"
   d="M-8.165,4.965c0.856-2.747,3.204-5.641,6.593-7.724   c3.389-2.082,7.03-2.868,9.869-2.391C7.441-2.401,5.094,0.492,1.704,2.575C-1.684,4.657-4.397,3.578-8.165,4.965z"
   id="path14" />
</symbol>
<g
   id="Layer_5">
	<path
   style="fill:gold;stroke:#404040;stroke-width:0;stroke-dasharray:none"
   d="M106.905,267.966c-4.345-14.194-13.747-24.838-22.995-24.838h-57   c-14.35,0-25.59-11.641-25.59-26.5V1.088H212.5v215.54c0,14.859-11.24,26.5-25.59,26.5h-57c-9.086,0-18.492,10.654-23.005,24.872   V267.966z"
   id="path17" />
	<path
   style="fill:#78c5f9;fill-opacity:1;stroke:#404040;stroke-miterlimit:10;stroke-width:0;stroke-dasharray:none"
   d="M 8.32,8.088 V 9.5940958 216.628 c 0,11.117 7.992,19.5 18.59,19.5 h 57 c 12.353,0 19.046,8.026 23.043,16.638 4.069,-8.608 10.785,-16.638 22.957,-16.638 h 57 c 10.598,0 18.59,-8.383 18.59,-19.5 V 8.088 Z"
   id="path19"
   sodipodi:nodetypes="ccssscssscc" />
</g>
<g
   id="Layer_2">
	<path
   style="fill:gold;stroke:#404040;"
   d="M120.419,54.414l-4.585-8.497h-7.25l-3.509,8.556   C92.152,57.398,82.5,68.943,82.5,82.75V93.5h60.75V82.75C143.25,68.852,133.471,57.243,120.419,54.414z"
   id="path22" />
	<path
   style="fill:#c3c3c1;stroke:#404040;fill-opacity:1"
   d="M144.75,100.152c0,1.104-0.896,2-2,2h-59.5c-1.104,0-2-0.896-2-2v-4.375   c0-1.104,0.896-2,2-2h59.5c1.104,0,2,0.896,2,2V100.152z"
   id="path24" />
	<path
   style="fill:#c3c3c1;stroke:#404040;stroke-linecap:round;stroke-linejoin:round;fill-opacity:1"
   d="M115.53,87.011   c1.297-0.876,2.149-2.36,2.149-4.042c0-2.106-1.343-3.883-3.213-4.565c1.131-1.145,2.479-2.279,2.802-2.279   c-0.55,0-4.464-3.938-4.464-4.464c0,0.589-3.867,4.464-4.464,4.464c0.332,0,1.678,1.134,2.806,2.277   c-1.872,0.681-3.217,2.459-3.217,4.566c0,1.687,0.857,3.173,2.16,4.048c-4.665,1.213-8.113,5.439-8.113,10.483l-0.031,4.563h21.688   l0.031-4.563C123.664,92.449,120.205,88.216,115.53,87.011z"
   id="path26" />
	
		<use
   xlink:href="#Dot"
   width="3.25"
   height="3.25"
   x="-1.625"
   y="-1.625"
   transform="matrix(1 0 0 -1 84.75 97.9644)"
   style="overflow:visible;"
   id="use28" />
	
		<use
   xlink:href="#Dot"
   width="3.25"
   height="3.25"
   x="-1.625"
   y="-1.625"
   transform="matrix(1 0 0 -1 91.625 97.9644)"
   style="overflow:visible;"
   id="use30" />
	
		<use
   xlink:href="#Dot"
   width="3.25"
   height="3.25"
   x="-1.625"
   y="-1.625"
   transform="matrix(1 0 0 -1 98.5 97.9644)"
   style="overflow:visible;"
   id="use32" />
	
		<use
   xlink:href="#Dot"
   width="3.25"
   height="3.25"
   x="-1.625"
   y="-1.625"
   transform="matrix(1 0 0 -1 127.25 97.9644)"
   style="overflow:visible;"
   id="use34" />
	
		<use
   xlink:href="#Dot"
   width="3.25"
   height="3.25"
   x="-1.625"
   y="-1.625"
   transform="matrix(1 0 0 -1 134.2295 97.9644)"
   style="overflow:visible;"
   id="use36" />
	
		<use
   xlink:href="#Dot"
   width="3.25"
   height="3.25"
   x="-1.625"
   y="-1.625"
   transform="matrix(1 0 0 -1 141.209 97.9644)"
   style="overflow:visible;"
   id="use38" />
	
		<use
   xlink:href="#Dot"
   width="3.25"
   height="3.25"
   x="-1.625"
   y="-1.625"
   transform="matrix(1 0 0 -1 112.875 76)"
   style="overflow:visible;"
   id="use40" />
	
		<use
   xlink:href="#Dot"
   width="3.25"
   height="3.25"
   x="-1.625"
   y="-1.625"
   transform="matrix(1.4651 0 0 -1.4651 108.4941 96.7441)"
   style="overflow:visible;"
   id="use42" />
	
		<use
   xlink:href="#Dot"
   width="3.25"
   height="3.25"
   x="-1.625"
   y="-1.625"
   transform="matrix(1.4651 0 0 -1.4651 117.1191 96.7441)"
   style="overflow:visible;"
   id="use44" />
	
		<use
   xlink:href="#flower"
   width="11.086"
   height="24.477"
   x="-5.213"
   y="-12.238"
   transform="matrix(1 0 0 -1 140.4277 77.0737)"
   style="overflow:visible;"
   id="use46" />
	
		<use
   xlink:href="#flower"
   width="11.086"
   height="24.477"
   x="-5.213"
   y="-12.238"
   transform="matrix(-1 0 0 -1 85.5005 77.0742)"
   style="overflow:visible;"
   id="use48" />
	<g
   id="g58">
		<path
   style="fill:#c3c3c1;stroke:#404040;fill-opacity:1"
   d="M112.583,27.833c0,2.917-6,26.5-12.583,27.75c0,0,6.499,0.416,8.333-2.167    c0.386-1.635-0.583-1.448-0.583-3.583c1.656,0,2.917,0.417,2.917,0.417s0.552,0.938,0.146,1.406s-1.344,1.531-1.344,2.313    s3.114,3.125,3.114,4.75c0-1.625,3.114-3.969,3.114-4.75s-0.938-1.844-1.344-2.313s0.146-1.406,0.146-1.406    s1.261-0.417,2.917-0.417c0,2.135-0.969,1.948-0.583,3.583c1.834,2.583,8.333,2.167,8.333,2.167    C118.583,54.333,112.583,30.75,112.583,27.833z"
   id="path50" />
		<g
   id="g54">
			<path
   style="fill:gold;stroke:#404040;"
   d="M112.583,27.833c0,1.024-0.741,4.597-1.985,8.854h3.971     C113.324,32.431,112.583,28.857,112.583,27.833z"
   id="path52" />
		</g>
		<circle
   style="fill:#c4c3c1;stroke:#404040;fill-opacity:1"
   cx="112.688"
   cy="26.938"
   r="1.5"
   id="circle56" />
	</g>
</g>
<g
   id="Layer_3">
	<path
   style="fill:gold;stroke:#404040;"
   d="M162.778,171.818c-0.006,0.073-0.022,0.144-0.022,0.219   c0,1.795,1.455,3.25,3.25,3.25s3.25-1.455,3.25-3.25c0-0.194-0.024-0.383-0.057-0.568c0.02,0,0.037,0.006,0.057,0.006   c1.795,0,3.25-1.455,3.25-3.25s-1.455-3.25-3.25-3.25c-0.013,0-0.025,0.004-0.038,0.004c0.015-0.126,0.038-0.249,0.038-0.379   c0-1.795-1.455-3.25-3.25-3.25s-3.25,1.455-3.25,3.25c0,0.075,0.017,0.146,0.022,0.219h-25.257v-25.257   c0.073,0.006,0.144,0.022,0.219,0.022c1.795,0,3.25-1.455,3.25-3.25s-1.455-3.25-3.25-3.25c-0.194,0-0.383,0.024-0.568,0.057   c0-0.02,0.006-0.037,0.006-0.057c0-1.795-1.455-3.25-3.25-3.25s-3.25,1.455-3.25,3.25c0,0.013,0.004,0.025,0.004,0.038   c-0.126-0.015-0.249-0.038-0.379-0.038c-1.795,0-3.25,1.455-3.25,3.25s1.455,3.25,3.25,3.25c0.075,0,0.146-0.017,0.219-0.022   v25.257h-25.257c0.006-0.073,0.022-0.144,0.022-0.219c0-1.795-1.455-3.25-3.25-3.25s-3.25,1.455-3.25,3.25   c0,0.194,0.024,0.383,0.057,0.568c-0.02,0-0.037-0.006-0.057-0.006c-1.795,0-3.25,1.455-3.25,3.25s1.455,3.25,3.25,3.25   c0.013,0,0.025-0.004,0.038-0.004c-0.015,0.126-0.038,0.249-0.038,0.379c0,1.795,1.455,3.25,3.25,3.25s3.25-1.455,3.25-3.25   c0-0.075-0.017-0.146-0.022-0.219h25.257v24.257c-0.073-0.006-0.144-0.022-0.219-0.022c-1.795,0-3.25,1.455-3.25,3.25   s1.455,3.25,3.25,3.25c0.194,0,0.383-0.024,0.568-0.057c0,0.02-0.006,0.037-0.006,0.057c0,1.795,1.455,3.25,3.25,3.25   s3.25-1.455,3.25-3.25c0-0.013-0.004-0.025-0.004-0.038c0.126,0.015,0.249,0.038,0.379,0.038c1.795,0,3.25-1.455,3.25-3.25   s-1.455-3.25-3.25-3.25c-0.075,0-0.146,0.017-0.219,0.022v-24.257H162.778z"
   id="path61"
   inkscape:label="path61" />
</g>
<g
   id="Layer_4">
	<path
   style="fill:gold;stroke:#404040;stroke-linejoin:round;"
   d="M70.15,198.75c10.1,19.25,33.35,20.125,42.475,20.125   c-0.25-1.625,0-3,1.125-3.625C82.5,215.125,70.15,198.75,70.15,198.75z"
   id="path64" />
	<polygon
   style="fill:gold;stroke:#404040;"
   points="87.917,119.75 110.25,113.083 90,120.917 115.583,114.75 89.417,122.667    119.5,117.917 91.625,123.833 119.083,120.083 93.25,124.583 117.119,123.083 91.625,125.333 80.917,127.583  "
   id="polygon66" />
	<g
   id="g92">
		
			<use
   xlink:href="#grain"
   width="17.889"
   height="11.569"
   x="-8.944"
   y="-5.785"
   transform="matrix(-0.5952 -0.4493 0.4447 -0.6991 89.7363 126.0762)"
   style="overflow:visible;"
   id="use68" />
		
			<use
   xlink:href="#grain"
   width="17.889"
   height="11.569"
   x="-8.944"
   y="-5.785"
   transform="matrix(-0.6105 -0.4284 0.4202 -0.7141 83.4697 129.5986)"
   style="overflow:visible;"
   id="use70" />
		
			<use
   xlink:href="#grain"
   width="17.889"
   height="11.569"
   x="-8.944"
   y="-5.785"
   transform="matrix(-0.6796 -0.3073 0.2799 -0.7798 77.7983 133.4097)"
   style="overflow:visible;"
   id="use72" />
		
			<use
   xlink:href="#grain"
   width="17.889"
   height="11.569"
   x="-8.944"
   y="-5.785"
   transform="matrix(-0.8868 -0.1443 0.1443 -0.8868 74.2764 137.2998)"
   style="overflow:visible;"
   id="use74" />
		
			<use
   xlink:href="#grain"
   width="17.889"
   height="11.569"
   x="-8.944"
   y="-5.785"
   transform="matrix(-0.8979 0.0298 -0.0298 -0.8979 69.166 143.8848)"
   style="overflow:visible;"
   id="use76" />
		
			<use
   xlink:href="#grain"
   width="17.889"
   height="11.569"
   x="-8.944"
   y="-5.785"
   transform="matrix(-0.8802 0.1798 -0.1798 -0.8802 66.21 149.9248)"
   style="overflow:visible;"
   id="use78" />
		
			<use
   xlink:href="#grain"
   width="17.889"
   height="11.569"
   x="-8.944"
   y="-5.785"
   transform="matrix(-0.8293 0.3456 -0.3456 -0.8293 63.8818 157.042)"
   style="overflow:visible;"
   id="use80" />
		
			<use
   xlink:href="#grain"
   width="17.889"
   height="11.569"
   x="-8.944"
   y="-5.785"
   transform="matrix(-0.7515 0.4924 -0.4924 -0.7515 63.3994 165.25)"
   style="overflow:visible;"
   id="use82" />
		
			<use
   xlink:href="#grain"
   width="17.889"
   height="11.569"
   x="-8.944"
   y="-5.785"
   transform="matrix(-0.7339 0.6792 -0.6792 -0.7339 64.3716 172.5596)"
   style="overflow:visible;"
   id="use84" />
		
			<use
   xlink:href="#grain"
   width="17.889"
   height="11.569"
   x="-8.944"
   y="-5.785"
   transform="matrix(-0.6786 0.7345 -0.7345 -0.6786 66.7295 180.0059)"
   style="overflow:visible;"
   id="use86" />
		
			<use
   xlink:href="#grain"
   width="17.889"
   height="11.569"
   x="-8.944"
   y="-5.785"
   transform="matrix(-0.5949 0.8038 -0.8038 -0.5949 69.4053 186.832)"
   style="overflow:visible;"
   id="use88" />
		
			<use
   xlink:href="#grain"
   width="17.889"
   height="11.569"
   x="-8.944"
   y="-5.785"
   transform="matrix(-0.5347 0.845 -0.845 -0.5347 72.689 194.1914)"
   style="overflow:visible;"
   id="use90" />
	</g>
	<g
   id="g118">
		
			<use
   xlink:href="#grain"
   width="17.889"
   height="11.569"
   x="-8.944"
   y="-5.785"
   transform="matrix(-0.0528 0.6069 0.7324 0.0271 88.3823 120.4639)"
   style="overflow:visible;"
   id="use94" />
		
			<use
   xlink:href="#grain"
   width="17.889"
   height="11.569"
   x="-8.944"
   y="-5.785"
   transform="matrix(-0.0228 0.7836 0.8333 0.0215 80.9033 123.8076)"
   style="overflow:visible;"
   id="use96" />
		
			<use
   xlink:href="#grain"
   width="17.889"
   height="11.569"
   x="-8.944"
   y="-5.785"
   transform="matrix(0.1668 0.8165 0.8179 -0.1667 74.7236 127.0215)"
   style="overflow:visible;"
   id="use98" />
		
			<use
   xlink:href="#grain"
   width="17.889"
   height="11.569"
   x="-8.944"
   y="-5.785"
   transform="matrix(0.2286 0.8433 0.8074 -0.2388 68.9619 131.3618)"
   style="overflow:visible;"
   id="use100" />
		
			<use
   xlink:href="#grain"
   width="17.889"
   height="11.569"
   x="-8.944"
   y="-5.785"
   transform="matrix(0.458 0.8316 0.9825 -0.4043 63.6592 138.2012)"
   style="overflow:visible;"
   id="use102" />
		
			<use
   xlink:href="#grain"
   width="17.889"
   height="11.569"
   x="-8.944"
   y="-5.785"
   transform="matrix(0.6127 0.72 0.7903 -0.5582 58.8374 145.9512)"
   style="overflow:visible;"
   id="use104" />
		
			<use
   xlink:href="#grain"
   width="17.889"
   height="11.569"
   x="-8.944"
   y="-5.785"
   transform="matrix(0.7664 0.6424 0.6424 -0.7664 56.3428 154.001)"
   style="overflow:visible;"
   id="use106" />
		
			<use
   xlink:href="#grain"
   width="17.889"
   height="11.569"
   x="-8.944"
   y="-5.785"
   transform="matrix(0.8589 0.5122 0.5122 -0.8589 55.1582 163.791)"
   style="overflow:visible;"
   id="use108" />
		
			<use
   xlink:href="#grain"
   width="17.889"
   height="11.569"
   x="-8.944"
   y="-5.785"
   transform="matrix(0.9327 0.3607 0.3607 -0.9327 56.124 172.9883)"
   style="overflow:visible;"
   id="use110" />
		
			<use
   xlink:href="#grain"
   width="17.889"
   height="11.569"
   x="-8.944"
   y="-5.785"
   transform="matrix(0.9829 0.1839 0.1839 -0.9829 57.5337 181.8271)"
   style="overflow:visible;"
   id="use112" />
		
			<use
   xlink:href="#grain"
   width="17.889"
   height="11.569"
   x="-8.944"
   y="-5.785"
   transform="matrix(0.9914 0.1311 0.1311 -0.9914 61.2739 190.5508)"
   style="overflow:visible;"
   id="use114" />
		
			<use
   xlink:href="#grain"
   width="17.889"
   height="11.569"
   x="-8.944"
   y="-5.785"
   transform="matrix(1 0 0 -1 65.5835 199.083)"
   style="overflow:visible;"
   id="use116" />
	</g>
</g>
</svg>
